<svg width="25" height="25" viewBox="0 0 25 25" fill="none" xmlns="http://www.w3.org/2000/svg">
<path d="M21.4756 10.69H18.5856C16.2156 10.69 14.2856 8.76 14.2856 6.39V3.5C14.2856 2.95 13.8356 2.5 13.2856 2.5H9.04559C5.96559 2.5 3.47559 4.5 3.47559 8.07V16.93C3.47559 20.5 5.96559 22.5 9.04559 22.5H16.9056C19.9856 22.5 22.4756 20.5 22.4756 16.93V11.69C22.4756 11.14 22.0256 10.69 21.4756 10.69ZM13.2556 16.28L11.2556 18.28C11.1856 18.35 11.0956 18.41 11.0056 18.44C10.9156 18.48 10.8256 18.5 10.7256 18.5C10.6256 18.5 10.5356 18.48 10.4456 18.44C10.3656 18.41 10.2856 18.35 10.2256 18.29C10.2156 18.28 10.2056 18.28 10.2056 18.27L8.20559 16.27C7.91559 15.98 7.91559 15.5 8.20559 15.21C8.49559 14.92 8.97559 14.92 9.26559 15.21L9.97559 15.94V11.75C9.97559 11.34 10.3156 11 10.7256 11C11.1356 11 11.4756 11.34 11.4756 11.75V15.94L12.1956 15.22C12.4856 14.93 12.9656 14.93 13.2556 15.22C13.5456 15.51 13.5456 15.99 13.2556 16.28Z" fill="white"/>
<path d="M18.4053 9.31048C19.3553 9.32048 20.6753 9.32048 21.8053 9.32048C22.3753 9.32048 22.6753 8.65048 22.2753 8.25048C20.8353 6.80048 18.2553 4.19048 16.7753 2.71048C16.3653 2.30048 15.6553 2.58048 15.6553 3.15048V6.64048C15.6553 8.10048 16.8953 9.31048 18.4053 9.31048Z" fill="white"/>
</svg>
