<svg width="25" height="24" viewBox="0 0 25 24" fill="none" xmlns="http://www.w3.org/2000/svg">
  <path d="M12.3672 21.75C6.71719 21.75 2.11719 17.15 2.11719 11.5C2.11719 5.85 6.71719 1.25 12.3672 1.25C18.0172 1.25 22.6172 5.85 22.6172 11.5C22.6172 17.15 18.0172 21.75 12.3672 21.75ZM12.3672 2.75C7.53719 2.75 3.61719 6.68 3.61719 11.5C3.61719 16.32 7.53719 20.25 12.3672 20.25C17.1972 20.25 21.1172 16.32 21.1172 11.5C21.1172 6.68 17.1972 2.75 12.3672 2.75Z" fill="#9BA8A8" />
  <path d="M22.8676 22.7499C22.6776 22.7499 22.4876 22.6799 22.3376 22.5299L20.3376 20.5299C20.0476 20.2399 20.0476 19.7599 20.3376 19.4699C20.6276 19.1799 21.1076 19.1799 21.3976 19.4699L23.3976 21.4699C23.6876 21.7599 23.6876 22.2399 23.3976 22.5299C23.2476 22.6799 23.0576 22.7499 22.8676 22.7499Z" fill="#9BA8A8" />
</svg>