<svg width="25" height="24" viewBox="0 0 25 24" fill="none" xmlns="http://www.w3.org/2000/svg">
<path d="M11.677 20.02C16.6531 20.02 20.687 15.9861 20.687 11.01C20.687 6.03391 16.6531 2 11.677 2C6.70091 2 2.66699 6.03391 2.66699 11.01C2.66699 15.9861 6.70091 20.02 11.677 20.02Z" fill="#9BA8A8"/>
<path d="M22.657 18.95C22.327 18.34 21.627 18 20.687 18C19.977 18 19.367 18.29 19.007 18.79C18.647 19.29 18.567 19.96 18.787 20.63C19.217 21.93 19.967 22.22 20.377 22.27C20.437 22.28 20.497 22.28 20.567 22.28C21.007 22.28 21.687 22.09 22.347 21.1C22.877 20.33 22.977 19.56 22.657 18.95Z" fill="#9BA8A8"/>
</svg>
