<svg width="161" height="160" viewBox="0 0 161 160" fill="none" xmlns="http://www.w3.org/2000/svg">
<path d="M144.965 95.333L142.299 128.666C141.299 138.866 140.499 146.666 122.432 146.666H38.5654C20.4988 146.666 19.6988 138.866 18.6988 128.666L16.0321 95.333C15.4988 89.7997 17.2321 84.6663 20.3654 80.733C20.4321 80.6663 20.4321 80.6663 20.4988 80.5997C24.1654 76.133 29.6988 73.333 35.8988 73.333H125.099C131.299 73.333 136.765 76.133 140.365 80.4663C140.432 80.533 140.499 80.5997 140.499 80.6663C143.765 84.5997 145.565 89.733 144.965 95.333Z" stroke="#CED7D7" stroke-width="6" stroke-miterlimit="10"/>
<path d="M23.833 76.2018V41.8685C23.833 19.2018 29.4997 13.5352 52.1663 13.5352H60.633C69.0997 13.5352 71.033 16.0685 74.233 20.3352L82.6997 31.6685C84.833 34.4685 86.0997 36.2018 91.7663 36.2018H108.766C131.433 36.2018 137.1 41.8685 137.1 64.5352V76.4685" stroke="#CED7D7" stroke-width="6" stroke-miterlimit="10" stroke-linecap="round" stroke-linejoin="round"/>
<path d="M63.3643 113.333H97.6309" stroke="#CED7D7" stroke-width="6" stroke-miterlimit="10" stroke-linecap="round" stroke-linejoin="round"/>
</svg>
