<svg width="64" height="64" viewBox="0 0 64 64" fill="none" xmlns="http://www.w3.org/2000/svg">
<circle cx="32" cy="32" r="30" fill="#29CC01"/>
<circle cx="32" cy="32" r="30.6522" stroke="#F2F6F6" stroke-opacity="0.5" stroke-width="1.30435"/>
<rect width="16" height="16" transform="translate(24 24)" fill="#29CC01"/>
<path fill-rule="evenodd" clip-rule="evenodd" d="M26.5014 25.3769C26.6056 25.3176 26.7335 25.3188 26.8365 25.38L37.5032 31.7133C37.6043 31.7734 37.6663 31.8823 37.6663 31.9999C37.6663 32.1176 37.6043 32.2265 37.5032 32.2865L26.8365 38.6199C26.7335 38.681 26.6056 38.6822 26.5014 38.6229C26.3973 38.5637 26.333 38.4531 26.333 38.3333V25.6666C26.333 25.5468 26.3973 25.4362 26.5014 25.3769ZM26.9997 26.2522V37.7477L36.6801 31.9999L26.9997 26.2522Z" fill="white"/>
<path d="M26.9997 26.2522V37.7477L36.6801 31.9999L26.9997 26.2522Z" fill="white"/>
</svg>
