<svg width="61" height="60" viewBox="0 0 61 60" fill="none" xmlns="http://www.w3.org/2000/svg">
<path d="M58.4465 16.2371L43.1607 0.353672C42.943 0.127734 42.6428 0 42.3292 0H19.5468C16.9971 0 14.9228 2.07352 14.9228 4.62211V20.7693H5.68996C3.78238 20.7693 2.23047 22.3207 2.23047 24.2278V41.5416C2.23047 43.4486 3.78238 45 5.68996 45H14.9228V55.386C14.9228 57.9301 16.9971 60 19.5468 60H54.145C56.6946 60 58.769 57.9313 58.769 55.3886V17.0373C58.769 16.7389 58.6533 16.4522 58.4465 16.2371ZM42.6152 3.11496L55.1635 16.1538H42.6152V3.11496ZM5.68996 42.6923C5.0548 42.6923 4.53824 42.1761 4.53824 41.5416V24.2278C4.53824 23.5932 5.05492 23.0769 5.68996 23.0769H36.8479C37.4829 23.0769 37.9997 23.5932 37.9997 24.2278V41.5416C37.9997 42.1761 37.4829 42.6923 36.8479 42.6923H5.68996ZM56.4612 55.3886C56.4612 56.6589 55.4221 57.6923 54.1449 57.6923H19.5468C18.2696 57.6923 17.2305 56.6578 17.2305 55.3861V45H36.8478C38.7555 45 40.3074 43.4486 40.3074 41.5416V24.2278C40.3074 22.3207 38.7555 20.7693 36.8478 20.7693H17.2305V4.62211C17.2305 3.34582 18.2696 2.30766 19.5468 2.30766H40.3074V17.3077C40.3074 17.9449 40.8241 18.4615 41.4612 18.4615H56.4612V55.3886Z" fill="#29CC01"/>
<path d="M15.318 28.7595C15.9527 29.3568 16.27 30.1128 16.27 31.0275C16.27 31.9421 15.9527 32.6981 15.318 33.2955C14.6927 33.8835 13.8713 34.1775 12.854 34.1775H11.118V37.8035H9.816V27.8635H12.854C13.8713 27.8635 14.6927 28.1621 15.318 28.7595ZM14.408 32.4275C14.7907 32.0635 14.982 31.5968 14.982 31.0275C14.982 30.4581 14.7907 29.9915 14.408 29.6275C14.0347 29.2635 13.5167 29.0815 12.854 29.0815H11.118V32.9735H12.854C13.5167 32.9735 14.0347 32.7915 14.408 32.4275ZM20.7631 37.9715C19.7551 37.9715 18.9291 37.6961 18.2851 37.1455C17.6505 36.5948 17.3238 35.9275 17.3051 35.1435H18.6071C18.6631 35.6568 18.9011 36.0535 19.3211 36.3335C19.7505 36.6135 20.2265 36.7535 20.7491 36.7535C21.2905 36.7535 21.7385 36.6181 22.0931 36.3475C22.4478 36.0768 22.6251 35.7175 22.6251 35.2695C22.6251 34.5135 22.1538 33.9581 21.2111 33.6035L19.8391 33.0995C19.0551 32.8288 18.4765 32.4695 18.1031 32.0215C17.7391 31.5735 17.5525 30.9995 17.5431 30.2995C17.5431 29.5061 17.8231 28.8761 18.3831 28.4095C18.9525 27.9335 19.6805 27.6955 20.5671 27.6955C21.5005 27.6955 22.2378 27.9661 22.7791 28.5075C23.3298 29.0395 23.6378 29.6648 23.7031 30.3835H22.4151C22.2938 29.8888 22.0605 29.5201 21.7151 29.2775C21.3791 29.0348 20.9871 28.9135 20.5391 28.9135C20.0538 28.9135 19.6478 29.0348 19.3211 29.2775C19.0038 29.5201 18.8451 29.8468 18.8451 30.2575C18.8451 30.6681 18.9571 30.9948 19.1811 31.2375C19.4051 31.4801 19.7691 31.6901 20.2731 31.8675L21.5471 32.3295C22.3311 32.6095 22.9238 32.9828 23.3251 33.4495C23.7265 33.9068 23.9271 34.4995 23.9271 35.2275C23.9271 36.0581 23.6331 36.7255 23.0451 37.2295C22.4571 37.7241 21.6965 37.9715 20.7631 37.9715ZM25.8805 37.8035V27.8635H28.7365C30.2578 27.8635 31.5178 28.3348 32.5165 29.2775C33.5245 30.2201 34.0285 31.4055 34.0285 32.8335C34.0285 34.2615 33.5245 35.4468 32.5165 36.3895C31.5178 37.3321 30.2578 37.8035 28.7365 37.8035H25.8805ZM27.1825 36.5855H28.7365C29.9218 36.5855 30.8785 36.2355 31.6065 35.5355C32.3438 34.8261 32.7125 33.9255 32.7125 32.8335C32.7125 31.7415 32.3438 30.8455 31.6065 30.1455C30.8785 29.4361 29.9218 29.0815 28.7365 29.0815H27.1825V36.5855Z" fill="#29CC01"/>
</svg>
