<svg width="28" height="29" viewBox="0 0 28 29" fill="none" xmlns="http://www.w3.org/2000/svg">
  <mask id="mask0_4001_1524" style="mask-type:alpha" maskUnits="userSpaceOnUse" x="0" y="0" width="28" height="29">
    <rect y="0.5" width="28" height="28" fill="#D9D9D9" />
  </mask>
  <g mask="url(#mask0_4001_1524)">
    <path d="M18.8909 23.2504C17.8235 23.2504 16.9097 22.8712 16.1496 22.1128C15.3895 21.3545 15.0094 20.4428 15.0094 19.3779C15.0094 18.313 15.3886 17.4021 16.147 16.6452C16.9054 15.8884 17.817 15.51 18.8819 15.51C19.9469 15.51 20.8577 15.8878 21.6146 16.6436C22.3714 17.3993 22.7498 18.3077 22.7498 19.3689C22.7498 19.8001 22.684 20.2077 22.5524 20.592C22.4208 20.9762 22.2331 21.3283 21.9893 21.6484L24.8274 24.5023C24.8842 24.5509 24.9269 24.6117 24.9553 24.6846C24.9837 24.7575 24.9979 24.8269 24.9979 24.8927C24.9979 24.9585 24.9837 25.028 24.9553 25.1013C24.9269 25.1746 24.8842 25.2427 24.8274 25.3055C24.7809 25.3551 24.7228 25.3948 24.6531 25.4246C24.5834 25.4544 24.5114 25.4693 24.437 25.4693C24.3541 25.4693 24.2764 25.4544 24.2039 25.4246C24.1313 25.3948 24.0639 25.3551 24.0018 25.3055L21.1636 22.4965C20.8435 22.7403 20.4917 22.9269 20.108 23.0563C19.7243 23.1857 19.3186 23.2504 18.8909 23.2504ZM6.77549 23.2728C5.71427 23.2728 4.80579 22.8944 4.05007 22.1375C3.29436 21.3807 2.9165 20.4578 2.9165 19.3689C2.9165 18.3077 3.29436 17.3993 4.05007 16.6436C4.80579 15.8878 5.71427 15.51 6.77549 15.51C7.86438 15.51 8.78724 15.8878 9.54407 16.6436C10.3009 17.3993 10.6793 18.3077 10.6793 19.3689C10.6793 20.4578 10.3009 21.3807 9.54407 22.1375C8.78724 22.8944 7.86438 23.2728 6.77549 23.2728ZM18.8909 22.1061C19.6312 22.1061 20.2651 21.844 20.7923 21.3198C21.3196 20.7955 21.5832 20.1452 21.5832 19.3689C21.5832 18.6286 21.3196 17.9947 20.7923 17.4675C20.2651 16.9403 19.6312 16.6767 18.8909 16.6767C18.1146 16.6767 17.4643 16.9403 16.9401 17.4675C16.4158 17.9947 16.1537 18.6286 16.1537 19.3689C16.1537 20.1452 16.4158 20.7955 16.9401 21.3198C17.4643 21.844 18.1146 22.1061 18.8909 22.1061ZM6.77549 11.2023C5.71427 11.2023 4.80579 10.8239 4.05007 10.067C3.29436 9.31019 2.9165 8.38733 2.9165 7.29844C2.9165 6.23722 3.29436 5.32874 4.05007 4.57302C4.80579 3.81731 5.71427 3.43945 6.77549 3.43945C7.86438 3.43945 8.78724 3.81731 9.54407 4.57302C10.3009 5.32874 10.6793 6.23722 10.6793 7.29844C10.6793 8.38733 10.3009 9.31019 9.54407 10.067C8.78724 10.8239 7.86438 11.2023 6.77549 11.2023ZM18.8909 11.2023C17.802 11.2023 16.8791 10.8239 16.1223 10.067C15.3654 9.31019 14.987 8.38733 14.987 7.29844C14.987 6.23722 15.3654 5.32874 16.1223 4.57302C16.8791 3.81731 17.802 3.43945 18.8909 3.43945C19.9521 3.43945 20.8605 3.81731 21.6163 4.57302C22.372 5.32874 22.7498 6.23722 22.7498 7.29844C22.7498 8.38733 22.372 9.31019 21.6163 10.067C20.8605 10.8239 19.9521 11.2023 18.8909 11.2023Z" fill="#29CC01" />
  </g>
</svg>
