<svg width="24" height="25" viewBox="0 0 24 25" fill="none" xmlns="http://www.w3.org/2000/svg">
<path d="M20.3598 13.6295C19.9898 13.6295 19.6798 13.3495 19.6398 12.9795C19.3998 10.7795 18.2198 8.79949 16.3998 7.53949C16.0698 7.30949 15.9898 6.85949 16.2198 6.52949C16.4498 6.19949 16.8998 6.11949 17.2298 6.34949C19.3998 7.85949 20.7998 10.2195 21.0898 12.8295C21.1298 13.2295 20.8398 13.5895 20.4398 13.6295C20.4098 13.6295 20.3898 13.6295 20.3598 13.6295Z" fill="#9BA8A8"/>
<path d="M3.7398 13.6796C3.7198 13.6796 3.6898 13.6796 3.6698 13.6796C3.2698 13.6396 2.9798 13.2796 3.0198 12.8796C3.2898 10.2696 4.6698 7.90962 6.8198 6.38962C7.1398 6.15962 7.5998 6.23962 7.8298 6.55962C8.0598 6.88962 7.9798 7.33962 7.6598 7.56962C5.8598 8.84962 4.6898 10.8296 4.4698 13.0196C4.4298 13.3996 4.1098 13.6796 3.7398 13.6796Z" fill="#9BA8A8"/>
<path d="M15.9899 21.9993C14.7599 22.5893 13.4399 22.8893 12.0599 22.8893C10.6199 22.8893 9.24986 22.5693 7.96986 21.9193C7.60986 21.7493 7.46986 21.3093 7.64986 20.9493C7.81986 20.5893 8.25986 20.4493 8.61986 20.6193C9.24986 20.9393 9.91986 21.1593 10.5999 21.2893C11.5199 21.4693 12.4599 21.4793 13.3799 21.3193C14.0599 21.1993 14.7299 20.9893 15.3499 20.6893C15.7199 20.5193 16.1599 20.6593 16.3199 21.0293C16.4999 21.3893 16.3599 21.8293 15.9899 21.9993Z" fill="#9BA8A8"/>
<path d="M12.0497 2.90918C10.4997 2.90918 9.22974 4.16918 9.22974 5.72918C9.22974 7.28918 10.4897 8.54918 12.0497 8.54918C13.6097 8.54918 14.8697 7.28918 14.8697 5.72918C14.8697 4.16918 13.6097 2.90918 12.0497 2.90918Z" fill="#9BA8A8"/>
<path d="M5.04974 14.7695C3.49974 14.7695 2.22974 16.0295 2.22974 17.5895C2.22974 19.1495 3.48974 20.4095 5.04974 20.4095C6.60974 20.4095 7.86974 19.1495 7.86974 17.5895C7.86974 16.0295 6.59974 14.7695 5.04974 14.7695Z" fill="#9BA8A8"/>
<path d="M18.9496 14.7695C17.3996 14.7695 16.1296 16.0295 16.1296 17.5895C16.1296 19.1495 17.3896 20.4095 18.9496 20.4095C20.5096 20.4095 21.7696 19.1495 21.7696 17.5895C21.7696 16.0295 20.5096 14.7695 18.9496 14.7695Z" fill="#9BA8A8"/>
</svg>
