<svg width="161" height="160" fill="none" xmlns="http://www.w3.org/2000/svg"><path d="m144.965 95.333-2.666 33.333c-1 10.2-1.8 18-19.867 18H38.565c-18.066 0-18.866-7.8-19.866-18l-2.667-33.333c-.533-5.533 1.2-10.667 4.333-14.6l.134-.133a19.83 19.83 0 0 1 15.4-7.267h89.2c6.2 0 11.666 2.8 15.266 7.133.067.067.134.134.134.2 3.266 3.934 5.066 9.067 4.466 14.667Z" stroke="#CED7D7" stroke-width="6" stroke-miterlimit="10"/><path d="M23.833 76.202V41.868c0-22.666 5.667-28.333 28.333-28.333h8.467c8.467 0 10.4 2.534 13.6 6.8L82.7 31.67c2.133 2.8 3.4 4.533 9.066 4.533h17c22.667 0 28.334 5.666 28.334 28.333V76.47m-73.736 36.863h34.267" stroke="#CED7D7" stroke-width="6" stroke-miterlimit="10" stroke-linecap="round" stroke-linejoin="round"/></svg>