<svg width="64" height="64" fill="none" xmlns="http://www.w3.org/2000/svg"><circle cx="32" cy="32" r="30" fill="#29CC01"/><circle cx="32" cy="32" r="30.652" stroke="#F2F6F6" stroke-opacity=".5" stroke-width="1.304"/><path fill="#29CC01" d="M24 24h16v16H24z"/><path fill-rule="evenodd" clip-rule="evenodd" d="M26.501 25.377a.333.333 0 0 1 .335.003l10.667 6.333a.333.333 0 0 1 0 .573L26.837 38.62a.333.333 0 0 1-.504-.287V25.667c0-.12.064-.23.168-.29Zm.499.875v11.496L36.68 32 27 26.252Z" fill="#fff"/><path d="M27 26.252v11.496L36.68 32 27 26.252Z" fill="#fff"/></svg>