<svg width="61" height="60" fill="none" xmlns="http://www.w3.org/2000/svg"><path d="M58.447 16.237 43.16.354A1.155 1.155 0 0 0 42.329 0H19.547a4.628 4.628 0 0 0-4.624 4.622V20.77H5.69a3.463 3.463 0 0 0-3.46 3.459v17.314A3.463 3.463 0 0 0 5.69 45h9.233v10.386A4.624 4.624 0 0 0 19.547 60h34.598c2.55 0 4.624-2.069 4.624-4.611V17.037c0-.298-.116-.585-.322-.8ZM42.614 3.115l12.548 13.039H42.615V3.115ZM5.69 42.692a1.152 1.152 0 0 1-1.152-1.15V24.228c0-.635.517-1.151 1.152-1.151h31.158c.635 0 1.152.516 1.152 1.15v17.315c0 .634-.517 1.15-1.152 1.15H5.69ZM56.461 55.39a2.312 2.312 0 0 1-2.316 2.303H19.547a2.314 2.314 0 0 1-2.317-2.306V45h19.618a3.463 3.463 0 0 0 3.46-3.458V24.228a3.463 3.463 0 0 0-3.46-3.459H17.23V4.622a2.318 2.318 0 0 1 2.316-2.314h20.76v15c0 .637.517 1.154 1.154 1.154h15v36.927Z" fill="#29CC01"/><path d="M15.318 28.76c.635.597.952 1.353.952 2.267 0 .915-.317 1.671-.952 2.268-.625.588-1.447.883-2.464.883h-1.736v3.626H9.816v-9.94h3.038c1.017 0 1.839.298 2.464.895Zm-.91 3.668c.383-.364.574-.831.574-1.4 0-.57-.191-1.037-.574-1.4-.373-.364-.891-.547-1.554-.547h-1.736v3.893h1.736c.663 0 1.18-.182 1.554-.546Zm6.355 5.544c-1.008 0-1.834-.276-2.478-.827-.634-.55-.961-1.218-.98-2.002h1.302c.056.514.294.91.714 1.19.43.28.905.42 1.428.42.542 0 .99-.135 1.344-.406.355-.27.532-.63.532-1.078 0-.755-.471-1.31-1.414-1.666L19.84 33.1c-.784-.27-1.362-.63-1.736-1.077-.364-.448-.55-1.022-.56-1.723 0-.793.28-1.423.84-1.89.57-.476 1.297-.713 2.184-.713.933 0 1.67.27 2.212.811.55.532.859 1.158.924 1.877h-1.288c-.121-.495-.354-.864-.7-1.107a1.955 1.955 0 0 0-1.176-.364c-.485 0-.891.122-1.218.364a1.17 1.17 0 0 0-.476.98c0 .411.112.738.336.98.224.243.588.453 1.092.63l1.274.463c.784.28 1.377.653 1.778 1.12.402.457.602 1.05.602 1.777 0 .831-.294 1.498-.882 2.003-.588.494-1.349.742-2.282.742Zm5.117-.169v-9.94h2.857c1.52 0 2.78.472 3.78 1.415 1.008.942 1.511 2.128 1.511 3.556 0 1.427-.503 2.613-1.511 3.555-1 .943-2.26 1.414-3.78 1.414H25.88Zm1.303-1.217h1.553c1.186 0 2.142-.35 2.87-1.05.738-.71 1.106-1.61 1.106-2.703 0-1.091-.368-1.987-1.106-2.688-.728-.709-1.684-1.064-2.87-1.064h-1.553v7.505Z" fill="#29CC01"/></svg>