<svg width="28" height="29" fill="none" xmlns="http://www.w3.org/2000/svg"><mask id="a" style="mask-type:alpha" maskUnits="userSpaceOnUse" x="0" y="0" width="28" height="29"><path fill="#D9D9D9" d="M0 .5h28v28H0z"/></mask><g mask="url(#a)"><path d="M18.89 23.25c-1.067 0-1.98-.379-2.74-1.137-.76-.758-1.14-1.67-1.14-2.735s.379-1.976 1.137-2.733c.758-.757 1.67-1.135 2.735-1.135s1.976.378 2.733 1.134c.756.755 1.135 1.664 1.135 2.725a3.723 3.723 0 0 1-.76 2.28l2.837 2.853c.057.049.1.11.128.183a.574.574 0 0 1 .043.208.658.658 0 0 1-.17.413.544.544 0 0 1-.39.164.607.607 0 0 1-.234-.045.823.823 0 0 1-.202-.12l-2.838-2.808a3.693 3.693 0 0 1-2.273.753Zm-12.115.023c-1.06 0-1.97-.379-2.725-1.136-.756-.756-1.133-1.68-1.133-2.768 0-1.061.377-1.97 1.133-2.725.756-.756 1.664-1.134 2.725-1.134 1.09 0 2.012.378 2.77 1.134.756.755 1.134 1.664 1.134 2.725 0 1.089-.378 2.012-1.135 2.768-.757.757-1.68 1.136-2.769 1.136Zm12.116-1.167a2.6 2.6 0 0 0 1.901-.786c.528-.524.791-1.175.791-1.951 0-.74-.263-1.374-.79-1.901a2.593 2.593 0 0 0-1.902-.791c-.776 0-1.427.263-1.95.79a2.6 2.6 0 0 0-.787 1.902c0 .776.262 1.427.786 1.95.524.525 1.175.787 1.95.787ZM6.775 11.202c-1.06 0-1.97-.378-2.725-1.135-.756-.757-1.133-1.68-1.133-2.769 0-1.06.377-1.97 1.133-2.725.756-.756 1.664-1.134 2.725-1.134 1.09 0 2.012.378 2.77 1.134.756.756 1.134 1.664 1.134 2.725 0 1.09-.378 2.012-1.135 2.769-.757.757-1.68 1.135-2.769 1.135Zm12.116 0c-1.089 0-2.012-.378-2.769-1.135-.757-.757-1.135-1.68-1.135-2.769 0-1.06.378-1.97 1.135-2.725.757-.756 1.68-1.134 2.769-1.134 1.061 0 1.97.378 2.725 1.134.756.756 1.134 1.664 1.134 2.725 0 1.09-.378 2.012-1.134 2.769-.756.757-1.664 1.135-2.725 1.135Z" fill="#29CC01"/></g></svg>