<svg width="174" height="50" fill="none" xmlns="http://www.w3.org/2000/svg"><g filter="url(#a)" clip-path="url(#b)"><path fill-rule="evenodd" clip-rule="evenodd" d="M104.421 3.47C114.46 8.06 124.517 14 135.555 14H150c13.255 0 24 10.745 24 24v149c0 13.255-10.745 24-24 24H25c-13.255 0-24-10.745-24-24V38c0-13.255 10.745-24 24-24h16.296C52.334 14 62.392 8.061 72.43 3.47A38.359 38.359 0 0 1 88.426 0a38.355 38.355 0 0 1 15.995 3.47Z" fill="#fff"/></g><defs><clipPath id="b"><path fill="#fff" transform="translate(.5)" d="M0 0h173v50H0z"/></clipPath><filter id="a" x="1" y="0" width="173" height="211" filterUnits="userSpaceOnUse" color-interpolation-filters="sRGB"><feFlood flood-opacity="0" result="BackgroundImageFix"/><feBlend in="SourceGraphic" in2="BackgroundImageFix" result="shape"/><feColorMatrix in="SourceAlpha" values="0 0 0 0 0 0 0 0 0 0 0 0 0 0 0 0 0 0 127 0" result="hardAlpha"/><feOffset/><feGaussianBlur stdDeviation="1"/><feComposite in2="hardAlpha" operator="arithmetic" k2="-1" k3="1"/><feColorMatrix values="0 0 0 0 0.715625 0 0 0 0 0.715625 0 0 0 0 0.715625 0 0 0 0.25 0"/><feBlend in2="shape" result="effect1_innerShadow_4036_4577"/></filter></defs></svg>